<mxfile host="app.diagrams.net" modified="2023-06-22T04:46:39.332Z" agent="Mozilla/5.0 (Windows NT 10.0; Win64; x64) AppleWebKit/537.36 (KHTML, like Gecko) Chrome/114.0.0.0 Safari/537.36" etag="VY5fdr7564OhYOz5WCXO" version="21.5.0" type="github">
  <diagram name="PÃ¡gina-1" id="T4Pqo_bBbtvzg6UolSL_">
    <mxGraphModel dx="554" dy="558" grid="1" gridSize="10" guides="1" tooltips="1" connect="1" arrows="1" fold="1" page="1" pageScale="1" pageWidth="827" pageHeight="1169" math="0" shadow="0">
      <root>
        <mxCell id="0" />
        <mxCell id="1" parent="0" />
        <mxCell id="t-JOsUrY7C4pAmYH-ij4-2" value="" style="edgeStyle=orthogonalEdgeStyle;rounded=0;orthogonalLoop=1;jettySize=auto;html=1;" edge="1" parent="1" source="p8X6_52At8-t9qin43oJ-1" target="t-JOsUrY7C4pAmYH-ij4-1">
          <mxGeometry relative="1" as="geometry" />
        </mxCell>
        <mxCell id="p8X6_52At8-t9qin43oJ-1" value="Start&amp;nbsp;&lt;br&gt;PIDPeriodicControlTask" style="ellipse;whiteSpace=wrap;html=1;" parent="1" vertex="1">
          <mxGeometry x="230" y="10" width="160" height="90" as="geometry" />
        </mxCell>
        <mxCell id="t-JOsUrY7C4pAmYH-ij4-4" value="" style="edgeStyle=orthogonalEdgeStyle;rounded=0;orthogonalLoop=1;jettySize=auto;html=1;" edge="1" parent="1" source="t-JOsUrY7C4pAmYH-ij4-1" target="t-JOsUrY7C4pAmYH-ij4-3">
          <mxGeometry relative="1" as="geometry" />
        </mxCell>
        <mxCell id="t-JOsUrY7C4pAmYH-ij4-1" value="GetTemperature()" style="shape=process;whiteSpace=wrap;html=1;backgroundOutline=1;" vertex="1" parent="1">
          <mxGeometry x="220" y="150" width="180" height="70" as="geometry" />
        </mxCell>
        <mxCell id="t-JOsUrY7C4pAmYH-ij4-6" value="" style="edgeStyle=orthogonalEdgeStyle;rounded=0;orthogonalLoop=1;jettySize=auto;html=1;" edge="1" parent="1" source="t-JOsUrY7C4pAmYH-ij4-3" target="t-JOsUrY7C4pAmYH-ij4-5">
          <mxGeometry relative="1" as="geometry" />
        </mxCell>
        <mxCell id="t-JOsUrY7C4pAmYH-ij4-3" value="GetSetPointTemperature()" style="shape=process;whiteSpace=wrap;html=1;backgroundOutline=1;" vertex="1" parent="1">
          <mxGeometry x="220" y="250" width="180" height="70" as="geometry" />
        </mxCell>
        <mxCell id="t-JOsUrY7C4pAmYH-ij4-12" value="" style="edgeStyle=orthogonalEdgeStyle;rounded=0;orthogonalLoop=1;jettySize=auto;html=1;" edge="1" parent="1" source="t-JOsUrY7C4pAmYH-ij4-5" target="t-JOsUrY7C4pAmYH-ij4-11">
          <mxGeometry relative="1" as="geometry" />
        </mxCell>
        <mxCell id="t-JOsUrY7C4pAmYH-ij4-5" value="Obtain Actuator Value: PIDUpdateData&lt;br&gt;(Temperature,&lt;br&gt;SetPointTemperature)" style="shape=process;whiteSpace=wrap;html=1;backgroundOutline=1;" vertex="1" parent="1">
          <mxGeometry x="220" y="360" width="180" height="75" as="geometry" />
        </mxCell>
        <mxCell id="t-JOsUrY7C4pAmYH-ij4-14" value="" style="edgeStyle=orthogonalEdgeStyle;rounded=0;orthogonalLoop=1;jettySize=auto;html=1;" edge="1" parent="1" source="t-JOsUrY7C4pAmYH-ij4-11" target="t-JOsUrY7C4pAmYH-ij4-13">
          <mxGeometry relative="1" as="geometry" />
        </mxCell>
        <mxCell id="t-JOsUrY7C4pAmYH-ij4-11" value="Update Actuator Value:&lt;br&gt;PIDActuatorSetValue( Actuator Value)" style="shape=process;whiteSpace=wrap;html=1;backgroundOutline=1;" vertex="1" parent="1">
          <mxGeometry x="220" y="470" width="180" height="75" as="geometry" />
        </mxCell>
        <mxCell id="t-JOsUrY7C4pAmYH-ij4-13" value="End&lt;br&gt;PIDPeriodicTask" style="ellipse;whiteSpace=wrap;html=1;" vertex="1" parent="1">
          <mxGeometry x="225" y="600" width="170" height="97.5" as="geometry" />
        </mxCell>
      </root>
    </mxGraphModel>
  </diagram>
</mxfile>
